<svg width="262" height="262" viewBox="0 0 262 262" fill="none" xmlns="http://www.w3.org/2000/svg">
<circle cx="130.87" cy="130.87" r="130.87" fill="#7C2D12"/>
<path d="M84.8501 172.313C83.17 172.313 82.0335 171.967 81.4405 171.275C80.8475 170.485 80.2051 169.249 79.5133 167.569C79.3157 167.174 79.2169 166.877 79.2169 166.68C79.118 165.296 79.0686 163.863 79.0686 162.381C79.0686 160.898 79.0686 159.465 79.0686 158.082C79.0686 148.989 79.5628 139.947 80.551 130.953C81.5393 121.96 82.0335 112.967 82.0335 103.973C82.0335 101.404 81.984 98.8836 81.8852 96.4129C81.8852 93.8433 81.6381 91.3232 81.144 88.8525L80.8475 87.3701L79.3651 86.9254C77.1909 86.2336 75.3626 85.443 73.8801 84.5535C72.4965 83.6641 71.8047 82.3299 71.8047 80.551C71.8047 79.4639 72.8919 78.2285 75.0661 76.8449C77.3391 75.4613 80.4522 74.3248 84.4053 73.4353C88.1608 72.6447 92.0151 72.2 95.9682 72.1012C99.9213 71.9035 102.985 71.8047 105.159 71.8047C110.397 71.8047 115.734 72.2494 121.169 73.1389C126.605 74.0283 131.695 75.5107 136.438 77.5861C141.182 79.5627 145.185 82.2805 148.446 85.7394C151.806 89.0996 153.931 93.3492 154.82 98.4883C155.117 99.773 155.265 101.206 155.265 102.787C155.265 107.926 153.931 112.127 151.263 115.388C148.693 118.55 145.283 121.219 141.034 123.393C136.883 125.468 132.337 127.445 127.396 129.323L123.393 130.805L127.396 134.363C128.483 135.351 129.619 136.389 130.805 137.476C132.09 138.464 133.276 139.551 134.363 140.737L141.034 148.001C143.01 150.175 144.938 152.597 146.815 155.265C148.693 157.835 149.632 160.355 149.632 162.825C149.632 167.075 147.507 169.2 143.257 169.2C141.874 169.2 141.034 169.052 140.737 168.755C140.737 168.755 140.688 168.755 140.589 168.755C140.589 168.656 140.54 168.607 140.441 168.607C140.342 168.409 140.095 168.113 139.7 167.717C139.403 167.421 139.057 167.075 138.662 166.68C138.267 166.284 137.921 165.84 137.624 165.345C135.351 161.294 132.831 157.736 130.064 154.672C127.297 151.51 123.591 147.952 118.946 143.999C117.661 142.813 115.931 141.528 113.757 140.144C111.583 138.761 111.56 137.494 107.897 135.34C104.233 133.186 92.6791 131.194 91.4932 129.712C90.3072 128.229 91.6826 126.498 91.6826 125.411C91.6826 124.719 92.0779 124.423 92.8685 124.522C93.6591 124.621 99.9522 124.479 101.916 123.921C103.794 123.13 109.755 123.689 112.127 123.096C114.498 122.405 116.92 121.713 119.39 121.021C121.861 120.23 124.332 119.44 126.803 118.649C129.372 117.76 131.695 116.673 133.77 115.388C135.845 114.004 138.02 112.176 140.293 109.903C142.664 107.531 143.85 104.962 143.85 102.194C143.85 99.1306 142.912 96.4623 141.034 94.1892C139.255 91.9162 137.031 90.0385 134.363 88.556C131.793 86.9748 129.323 85.8877 126.951 85.2947C124.085 84.5041 120.675 83.9605 116.722 83.6641C112.868 83.3676 109.359 83.2193 106.197 83.2193H96.8577C95.6717 83.2193 95.0788 83.8617 95.0788 85.1465L91.0762 156.451C90.9774 157.143 90.928 157.983 90.928 158.971C91.0268 159.861 91.0268 160.799 90.928 161.788C90.7303 163.665 90.4338 165.494 90.0385 167.273C89.1491 170.633 87.4196 172.313 84.8501 172.313Z" fill="#F8F7F4"/>
<path d="M186.362 114.323C184.583 114.323 183.15 113.829 182.063 112.841C180.976 111.753 180.433 110.172 180.433 108.097C180.433 106.417 180.976 105.083 182.063 104.094C183.15 103.007 184.386 102.464 185.769 102.464C187.449 102.464 188.685 102.859 189.475 103.65C190.365 104.44 190.809 106.17 190.809 108.838C190.809 110.913 190.464 112.346 189.772 113.137C189.179 113.928 188.042 114.323 186.362 114.323ZM156.121 190.223C154.342 190.223 153.452 189.432 153.452 187.851C153.452 187.555 153.65 187.06 154.045 186.369C154.342 185.875 154.688 185.38 155.083 184.886C155.478 184.491 155.874 184.046 156.269 183.552C156.862 182.959 157.801 182.02 159.086 180.735C160.37 179.451 161.556 178.215 162.643 177.029C163.829 175.843 164.571 175.152 164.867 174.954C165.559 174.163 166.201 173.323 166.794 172.434C167.387 171.544 167.931 170.655 168.425 169.766C168.919 168.975 169.463 168.135 170.056 167.245C170.649 166.257 171.242 165.368 171.835 164.577C174.305 161.118 176.578 159.389 178.654 159.389C179.642 159.389 180.482 159.735 181.174 160.426C181.866 161.118 182.211 162.156 182.211 163.539C182.211 165.121 181.52 167.048 180.136 169.321C178.851 171.594 177.171 173.916 175.096 176.288C173.02 178.759 170.797 181.032 168.425 183.107C166.053 185.183 163.78 186.863 161.606 188.148C159.432 189.531 157.603 190.223 156.121 190.223Z" fill="#F8F7F4"/>
</svg>
