<svg width="500" height="500" viewBox="0 0 500 500" fill="none" xmlns="http://www.w3.org/2000/svg">
<path d="M500 250C500 388.071 388.071 500 250 500C111.929 500 0 388.071 0 250C0 111.929 111.929 0 250 0C388.071 0 500 111.929 500 250Z" fill="#7C2D12"/>
<path d="M135.5 292.65C130.293 292.65 125.82 291.917 122.08 290.45C118.34 288.91 115.223 286.783 112.73 284.07C110.31 281.357 108.513 278.167 107.34 274.5C106.167 270.833 105.58 266.8 105.58 262.4V214.77H119.55V261.08C119.55 264.527 119.917 267.497 120.65 269.99C121.457 272.41 122.557 274.39 123.95 275.93C125.417 277.47 127.103 278.607 129.01 279.34C130.99 280.073 133.19 280.44 135.61 280.44C138.03 280.44 140.23 280.073 142.21 279.34C144.19 278.607 145.877 277.47 147.27 275.93C148.737 274.39 149.837 272.41 150.57 269.99C151.377 267.497 151.78 264.527 151.78 261.08V214.77H165.75V262.4C165.75 266.8 165.127 270.833 163.88 274.5C162.707 278.167 160.873 281.357 158.38 284.07C155.96 286.783 152.843 288.91 149.03 290.45C145.217 291.917 140.707 292.65 135.5 292.65Z" fill="#F8F7F4"/>
<path d="M228.684 291C226.557 286.673 223.88 281.907 220.654 276.7C217.427 271.493 214.054 266.47 210.534 261.63C209.067 263.537 207.454 265.81 205.694 268.45C204.007 271.09 202.284 273.803 200.524 276.59C198.837 279.303 197.26 281.943 195.794 284.51C194.327 287.077 193.154 289.24 192.274 291H176.544C179.844 284.767 183.657 278.387 187.984 271.86C192.31 265.26 197.004 258.367 202.064 251.18L177.644 214.77H194.144L210.974 240.84L227.584 214.77H243.424L219.334 251.07C224.907 258.623 229.821 265.773 234.074 272.52C238.401 279.267 242.031 285.427 244.964 291H228.684Z" fill="#F8F7F4"/>
<path d="M258.276 311.35H244.636L281.816 204.87H295.236L258.276 311.35Z" fill="#F8F7F4"/>
<path d="M331.867 292.65C326.661 292.65 322.187 291.917 318.447 290.45C314.707 288.91 311.591 286.783 309.097 284.07C306.677 281.357 304.881 278.167 303.707 274.5C302.534 270.833 301.947 266.8 301.947 262.4V214.77H315.917V261.08C315.917 264.527 316.284 267.497 317.017 269.99C317.824 272.41 318.924 274.39 320.317 275.93C321.784 277.47 323.471 278.607 325.377 279.34C327.357 280.073 329.557 280.44 331.977 280.44C334.397 280.44 336.597 280.073 338.577 279.34C340.557 278.607 342.244 277.47 343.637 275.93C345.104 274.39 346.204 272.41 346.937 269.99C347.744 267.497 348.147 264.527 348.147 261.08V214.77H362.117V262.4C362.117 266.8 361.494 270.833 360.247 274.5C359.074 278.167 357.241 281.357 354.747 284.07C352.327 286.783 349.211 288.91 345.397 290.45C341.584 291.917 337.074 292.65 331.867 292.65Z" fill="#F8F7F4"/>
<path d="M379.841 214.77H393.701V291H379.841V214.77Z" fill="#F8F7F4"/>
</svg>
